<?xml version="1.0" standalone="no"?>
<!DOCTYPE svg PUBLIC "-//W3C//DTD SVG 20010904//EN"
 "http://www.w3.org/TR/2001/REC-SVG-20010904/DTD/svg10.dtd">
<svg version="1.0" xmlns="http://www.w3.org/2000/svg"
 width="1280.000000pt" height="1246.000000pt" viewBox="0 0 1280.000000 1246.000000"
 preserveAspectRatio="xMidYMid meet">
<metadata>
Created by potrace 1.15, written by Peter Selinger 2001-2017
</metadata>
<g transform="translate(0.000000,1246.000000) scale(0.100000,-0.100000)"
fill="#000000" stroke="none">
<path d="M6060 11714 c-921 -59 -1667 -276 -2340 -682 -942 -568 -1653 -1484
-2106 -2710 -217 -586 -378 -1273 -464 -1967 -11 -93 -23 -190 -26 -214 l-6
-43 -14 28 c-58 111 -200 153 -307 91 -64 -38 -99 -93 -105 -164 -5 -53 8
-136 30 -198 5 -16 18 -58 28 -92 l18 -62 -39 -39 c-35 -35 -39 -45 -39 -88 0
-69 26 -106 97 -139 32 -15 60 -29 61 -31 2 -1 15 -39 28 -85 l24 -82 -26 -30
c-23 -27 -26 -38 -22 -89 5 -65 29 -100 84 -120 23 -8 34 -20 42 -46 10 -32 9
-38 -18 -69 -34 -39 -45 -72 -36 -114 9 -48 42 -86 95 -109 l48 -22 26 -91 25
-91 -21 -31 c-29 -40 -30 -113 -1 -152 11 -15 36 -36 56 -46 30 -15 38 -26 52
-77 12 -44 14 -65 6 -79 -24 -46 -7 -116 39 -159 21 -20 36 -51 55 -120 l27
-93 -29 -24 c-82 -69 -47 -202 62 -238 34 -11 43 -20 54 -53 12 -35 11 -42 -7
-75 -38 -67 -18 -141 51 -186 21 -14 38 -26 38 -27 0 -1 9 -31 19 -68 l19 -66
-24 -23 c-14 -13 -26 -39 -30 -65 -9 -61 18 -112 76 -142 33 -16 48 -32 57
-56 10 -31 9 -36 -13 -57 -47 -44 -54 -120 -16 -177 9 -13 39 -37 67 -53 47
-27 53 -34 67 -85 16 -55 16 -57 -8 -91 -36 -54 -33 -121 7 -168 17 -19 42
-38 56 -41 15 -4 30 -19 38 -37 12 -29 11 -32 -19 -51 -44 -30 -68 -81 -61
-130 8 -57 37 -89 110 -127 63 -32 66 -36 81 -87 15 -50 15 -55 -5 -95 -26
-54 -26 -70 0 -125 14 -29 33 -49 56 -60 41 -19 50 -49 29 -90 -34 -66 -13
-144 49 -182 19 -12 35 -26 35 -30 0 -5 -11 -21 -25 -35 -75 -82 -43 -192 69
-235 l29 -11 -20 -22 c-69 -76 -52 -177 38 -225 37 -19 45 -29 55 -67 6 -25
18 -53 26 -63 8 -9 26 -38 41 -63 54 -95 173 -136 273 -94 20 8 40 12 45 9 18
-11 269 -83 391 -113 228 -55 302 -65 468 -65 134 1 176 5 305 32 135 28 457
114 528 141 22 9 35 7 68 -11 50 -26 140 -29 184 -5 29 15 36 14 130 -14 149
-45 387 -105 495 -125 128 -24 361 -24 490 0 110 20 392 91 530 134 87 27 106
29 220 27 116 -3 135 -6 275 -49 180 -55 423 -110 559 -127 203 -25 445 12
818 123 l137 40 52 -26 c80 -39 183 -31 239 19 14 12 28 10 110 -16 123 -38
383 -103 501 -125 127 -24 361 -24 489 0 118 21 402 94 533 136 91 29 103 31
148 20 94 -23 180 14 245 102 58 78 63 90 64 131 0 32 4 39 33 53 45 22 69 59
75 113 3 38 -1 53 -23 85 -14 21 -25 40 -23 41 2 1 26 12 53 24 70 30 99 74
93 142 -4 39 -12 57 -37 83 -37 38 -39 51 -7 71 47 31 71 119 45 166 -18 34
-1 78 34 93 52 22 79 59 85 116 4 42 0 56 -21 89 -26 39 -26 41 -11 90 13 46
19 53 75 82 89 48 118 100 98 174 -6 22 -26 54 -45 71 -45 43 -37 66 32 98 61
28 94 72 94 124 0 42 -26 99 -52 113 -11 6 -17 17 -14 27 3 9 9 35 15 57 9 33
18 44 56 64 100 53 121 152 49 231 -20 23 -21 28 -10 56 10 22 24 33 53 42 51
15 94 61 102 109 10 57 3 79 -35 120 l-35 36 13 55 c10 45 18 58 49 79 21 14
46 37 55 51 25 39 24 113 -2 149 -18 24 -19 32 -9 62 9 29 19 37 73 56 71 26
88 38 108 76 32 63 5 149 -58 181 l-35 19 25 87 c13 48 31 91 38 95 61 36 86
107 62 175 -12 33 -13 52 -6 83 10 36 16 43 74 69 71 32 94 64 94 130 0 48
-23 93 -57 111 -13 7 -22 18 -20 23 2 6 12 41 22 79 l18 67 59 27 c64 28 96
64 105 116 7 43 -17 99 -55 127 -43 32 -34 66 22 81 63 17 95 37 116 72 38 61
17 149 -45 187 l-33 20 21 70 c15 52 25 71 41 76 120 37 172 92 163 177 -4 42
-10 56 -39 82 -19 18 -40 34 -48 37 -20 6 -2 68 23 77 66 25 94 132 52 194 -9
13 -9 28 2 70 25 90 4 179 -55 235 -109 102 -285 72 -350 -59 l-20 -41 -6 44
c-3 23 -13 104 -22 178 -25 220 -71 504 -119 742 -345 1728 -1106 3016 -2230
3775 -234 159 -593 348 -845 446 -436 171 -884 276 -1420 333 -136 14 -836 27
-980 18z m645 -664 c544 -28 979 -111 1423 -274 938 -343 1673 -1025 2170
-2014 375 -745 602 -1578 717 -2625 l7 -59 -29 6 c-169 35 -678 56 -895 37
-209 -19 -597 -68 -684 -86 -20 -4 -22 0 -26 60 -3 51 -10 73 -34 107 -82 116
-265 124 -350 13 -32 -42 -53 -98 -54 -143 0 -22 -6 -34 -17 -38 -10 -3 -28
-10 -39 -16 -16 -7 -57 -5 -150 11 -783 126 -1138 131 -1869 21 -77 -11 -158
-23 -180 -26 l-41 -6 -2 36 c-6 81 -51 147 -126 182 -28 13 -66 24 -85 24
-111 0 -205 -80 -226 -194 -4 -21 -13 -40 -20 -43 -8 -2 -125 11 -262 31 -452
64 -525 71 -833 71 -307 0 -451 -13 -870 -76 -107 -16 -213 -32 -235 -35 l-40
-6 -12 63 c-23 121 -106 192 -222 192 -107 0 -188 -69 -211 -180 -9 -42 -16
-53 -31 -53 -11 0 -95 11 -187 25 -403 59 -520 69 -832 69 -245 0 -326 -4
-479 -22 -101 -13 -186 -20 -189 -18 -3 3 5 83 17 178 258 2017 1029 3456
2246 4194 728 442 1636 645 2650 594z m-4057 -5201 c81 -6 172 -14 202 -18
l55 -7 -65 -12 c-279 -50 -536 -59 -775 -28 -77 10 -144 22 -148 26 -8 7 18
10 303 35 190 16 252 17 428 4z m2702 -5 c113 -9 209 -19 213 -23 9 -9 -170
-35 -348 -52 -129 -12 -272 -7 -452 17 -199 25 -204 29 -72 43 300 33 397 35
659 15z m2626 1 c104 -9 212 -19 239 -23 l50 -8 -75 -12 c-41 -7 -149 -19
-240 -29 -140 -14 -186 -15 -305 -5 -169 14 -375 43 -375 52 0 4 75 12 168 19
92 7 174 14 182 16 39 8 185 4 356 -10z m2762 -11 c100 -9 182 -20 182 -24 0
-19 -391 -54 -520 -46 -127 8 -335 33 -410 50 l-55 12 85 9 c220 21 264 23
395 20 77 -2 222 -11 323 -21z"/>
</g>
</svg>
